<?xml version="1.0" encoding="UTF-8" ?>
<!DOCTYPE svg PUBLIC "-//W3C//DTD SVG 1.1//EN" "http://www.w3.org/Graphics/SVG/1.1/DTD/svg11.dtd">
<svg width="200pt" height="200pt" viewBox="0 0 200 200" version="1.1" xmlns="http://www.w3.org/2000/svg">
<g id="#ffffffff">
<path fill="#ffffff" opacity="1.00" d=" M 0.00 0.00 L 200.00 0.00 L 200.00 200.00 L 0.00 200.00 L 0.00 0.00 M 154.34 30.20 C 112.01 47.26 69.69 64.33 27.36 81.36 C 24.52 82.45 20.65 83.41 20.52 87.15 C 20.66 91.72 24.56 94.64 27.87 97.15 C 61.25 124.79 94.60 152.46 127.97 180.10 C 130.05 181.78 132.01 184.42 135.04 183.88 C 138.07 183.73 139.97 180.80 140.29 178.02 C 147.34 133.21 154.37 88.39 161.43 43.57 C 161.88 40.21 162.49 36.70 161.49 33.38 C 160.60 30.49 157.07 28.93 154.34 30.20 Z" />
</g>
<g id="#ee685dff">
<path fill="#ee685d" opacity="1.00" d=" M 154.34 30.20 C 157.07 28.93 160.60 30.49 161.49 33.38 C 162.49 36.70 161.88 40.21 161.43 43.57 C 154.37 88.39 147.34 133.21 140.29 178.02 C 139.97 180.80 138.07 183.73 135.04 183.88 C 132.01 184.42 130.05 181.78 127.97 180.10 C 94.60 152.46 61.25 124.79 27.87 97.15 C 24.56 94.64 20.66 91.72 20.52 87.15 C 20.65 83.41 24.52 82.45 27.36 81.36 C 69.69 64.33 112.01 47.26 154.34 30.20 Z" />
</g>
</svg>
