<?xml version="1.0" encoding="UTF-8" ?>
<!DOCTYPE svg PUBLIC "-//W3C//DTD SVG 1.1//EN" "http://www.w3.org/Graphics/SVG/1.1/DTD/svg11.dtd">
<svg width="513pt" height="472pt" viewBox="0 0 513 472" version="1.1" xmlns="http://www.w3.org/2000/svg">
<g id="#ffffffff">
<path fill="#ffffff" opacity="1.00" d=" M 193.38 214.19 C 196.82 222.05 196.03 230.79 195.04 239.07 C 194.56 243.80 191.91 247.90 189.24 251.69 C 188.73 240.94 188.93 230.11 190.82 219.50 C 191.17 217.52 192.22 215.80 193.38 214.19 Z" />
</g>
<g id="#000000ff">
<path fill="#000000" opacity="1.00" d=" M 313.28 100.29 C 314.74 98.12 317.58 98.93 318.84 100.85 C 316.44 114.58 316.55 128.75 312.48 142.18 C 310.70 158.13 308.49 174.03 306.61 189.96 C 305.70 201.98 304.00 213.91 303.42 225.95 C 303.16 234.66 301.60 243.27 301.12 251.97 C 300.82 258.72 299.26 265.32 298.11 271.96 C 297.95 273.66 296.80 274.96 295.87 276.30 C 292.86 276.51 290.89 274.23 290.43 271.46 C 288.18 262.29 284.46 253.62 281.10 244.83 C 271.01 224.02 259.11 204.07 250.66 182.49 C 245.02 169.21 240.16 155.63 234.92 142.19 C 233.02 136.73 230.57 131.43 229.40 125.74 C 228.21 132.47 227.19 139.22 226.15 145.97 C 223.77 153.79 224.30 162.07 222.28 169.97 C 219.84 185.25 218.15 200.66 215.53 215.92 C 215.31 223.84 213.38 231.54 212.72 239.42 C 210.89 245.05 210.11 251.43 206.05 256.02 C 203.97 258.93 199.40 255.06 201.51 252.36 C 204.21 248.31 205.12 243.48 206.60 238.92 C 207.44 230.95 209.08 223.11 209.54 215.10 C 212.07 199.62 213.86 184.03 216.36 168.55 C 217.99 162.42 217.72 156.02 218.99 149.84 C 221.36 141.08 221.54 131.88 223.93 123.12 C 224.78 120.29 227.77 117.35 230.91 118.56 C 232.44 118.95 233.42 120.44 234.04 121.80 C 241.86 143.92 250.30 165.83 259.29 187.50 C 267.55 206.49 278.03 224.38 286.96 243.03 C 289.13 249.25 292.01 255.20 293.81 261.55 C 295.10 254.75 295.10 247.79 295.96 240.94 C 297.17 231.99 297.48 222.96 298.08 213.96 C 299.69 201.36 300.29 188.65 302.18 176.07 C 303.43 165.36 305.06 154.69 306.07 143.94 C 306.42 140.47 307.51 137.14 308.40 133.79 C 309.28 129.17 309.61 124.48 310.39 119.85 C 311.34 113.35 310.95 106.51 313.28 100.29 Z" />
<path fill="#000000" opacity="1.00" d=" M 56.15 107.94 C 60.93 105.43 66.79 105.40 71.77 107.33 C 75.84 109.64 76.82 114.57 78.68 118.51 C 84.28 131.26 89.28 144.27 95.32 156.83 C 99.62 167.60 103.62 178.48 108.13 189.17 C 112.33 200.77 117.29 212.25 119.02 224.55 C 121.83 210.21 136.00 200.39 149.93 198.95 C 157.78 199.64 165.63 200.90 173.15 203.28 C 175.87 203.65 180.76 203.98 179.92 207.96 C 178.12 211.43 173.94 209.46 171.00 209.05 C 164.17 206.81 157.00 205.66 149.85 205.14 C 139.54 206.40 129.25 213.04 125.63 223.08 C 124.48 228.65 124.95 234.41 125.02 240.06 C 124.99 246.96 128.16 253.25 130.59 259.54 C 132.05 263.04 133.99 267.20 138.24 267.78 C 150.90 269.33 163.28 265.21 174.97 260.82 C 178.16 259.46 180.89 257.29 183.84 255.51 C 181.86 243.79 182.93 231.79 184.54 220.10 C 185.16 215.41 187.30 210.17 192.02 208.35 C 194.61 207.17 197.50 209.08 198.57 211.46 C 202.29 218.67 202.57 227.11 201.55 235.02 C 201.39 243.49 198.06 252.41 191.10 257.60 C 191.96 264.61 193.47 271.51 194.73 278.46 C 195.73 282.60 197.16 286.70 197.15 291.02 C 197.54 300.35 193.39 309.03 189.37 317.20 C 185.17 325.13 181.51 333.66 174.86 339.92 C 170.11 345.38 163.35 348.31 157.56 352.45 C 150.29 355.87 143.39 360.99 135.07 361.21 C 130.67 361.38 125.38 361.31 122.53 357.35 C 116.80 349.40 112.85 340.36 108.28 331.73 C 105.88 326.70 102.75 320.81 105.00 315.19 C 107.88 312.18 112.41 311.94 116.16 310.60 C 116.71 310.84 117.82 311.34 118.37 311.58 C 118.90 312.91 119.18 314.35 118.37 315.65 C 115.94 317.39 112.87 317.83 110.07 318.72 C 110.61 321.17 111.10 323.66 112.22 325.92 C 115.66 332.99 119.33 339.96 123.03 346.90 C 124.73 349.53 126.06 352.54 128.48 354.62 C 132.77 355.41 137.38 355.30 141.49 353.71 C 147.99 350.55 154.61 347.53 160.49 343.27 C 168.21 339.05 174.61 332.44 178.58 324.58 C 183.33 315.80 188.41 306.95 190.62 297.12 C 192.27 289.15 188.82 281.59 187.68 273.85 C 186.85 269.65 185.86 265.46 185.67 261.17 C 181.12 265.45 175.06 267.48 169.21 269.26 C 163.13 271.91 156.50 272.73 150.04 274.00 C 142.84 274.38 133.92 275.30 128.86 268.96 C 125.17 263.84 123.34 257.65 121.12 251.81 C 121.11 261.88 121.09 271.95 121.10 282.01 C 121.01 283.51 121.17 285.59 119.55 286.36 C 117.81 287.84 114.94 286.09 114.98 283.94 C 114.63 267.27 115.31 250.56 114.71 233.89 C 112.90 225.95 112.10 217.73 109.18 210.07 C 95.74 208.53 82.27 207.54 68.83 206.05 C 60.02 204.25 51.02 203.75 42.08 203.06 C 39.95 203.00 38.06 200.36 39.48 198.47 C 41.48 195.77 45.11 197.49 47.88 197.42 C 56.06 197.73 64.13 199.02 72.18 200.38 C 83.81 201.28 95.42 202.49 107.02 203.75 C 101.77 189.03 95.53 174.69 90.07 160.05 C 84.04 147.39 78.92 134.33 73.32 121.47 C 71.91 118.43 71.07 115.05 68.84 112.46 C 65.22 112.13 61.08 111.49 58.03 113.97 C 56.29 115.61 55.07 117.72 53.93 119.80 C 45.46 137.45 45.28 157.41 40.63 176.11 C 39.03 183.63 38.77 191.37 36.92 198.85 C 35.14 206.20 34.57 213.75 33.65 221.23 C 31.83 232.06 30.99 243.01 30.15 253.94 C 29.99 266.98 30.16 280.03 30.07 293.07 C 30.25 294.76 29.30 296.26 27.78 296.96 C 25.54 297.50 23.56 295.18 23.91 293.03 C 23.88 280.36 23.88 267.69 23.92 255.03 C 24.85 243.37 25.70 231.70 27.64 220.16 C 28.52 212.76 29.15 205.30 30.87 198.03 C 33.00 189.29 33.14 180.21 35.40 171.50 C 37.08 164.74 38.05 157.86 38.97 150.97 C 41.12 139.27 43.35 127.38 48.73 116.67 C 50.65 113.38 52.62 109.74 56.15 107.94 M 193.38 214.19 C 192.22 215.80 191.17 217.52 190.82 219.50 C 188.93 230.11 188.73 240.94 189.24 251.69 C 191.91 247.90 194.56 243.80 195.04 239.07 C 196.03 230.79 196.82 222.05 193.38 214.19 Z" />
<path fill="#000000" opacity="1.00" d=" M 362.16 119.15 C 371.28 118.48 380.51 118.71 389.55 120.20 C 394.00 120.75 398.58 120.81 402.83 122.41 C 407.59 124.17 412.93 124.05 417.40 126.63 C 420.31 128.30 423.14 130.23 425.37 132.76 C 429.42 138.34 431.62 144.98 433.63 151.51 C 439.60 167.90 437.55 186.51 430.18 202.11 C 424.56 214.71 416.73 226.30 407.82 236.80 C 399.87 245.31 391.47 253.91 380.88 259.06 C 375.34 260.38 369.25 261.00 363.76 259.30 C 356.39 255.52 352.12 247.93 347.86 241.16 C 343.92 234.50 339.77 227.84 337.41 220.42 C 335.38 213.66 332.36 207.18 331.32 200.15 C 327.60 184.68 328.86 168.63 330.18 152.95 C 330.74 146.63 332.87 140.09 337.93 135.94 C 341.09 132.86 345.67 132.34 349.86 131.99 C 352.26 131.82 354.26 135.32 352.11 137.00 C 349.53 139.17 345.54 137.72 342.85 139.84 C 337.59 143.37 336.33 150.11 336.09 156.01 C 334.38 173.98 334.07 192.62 340.24 209.84 C 342.32 214.90 343.38 220.35 345.89 225.24 C 348.71 230.86 351.96 236.25 355.28 241.59 C 357.94 245.84 360.98 249.96 364.95 253.08 C 368.01 254.80 371.75 253.91 375.10 253.91 C 379.29 253.97 382.62 251.12 385.94 248.96 C 401.34 237.19 413.39 221.55 422.41 204.49 C 426.67 195.53 430.59 186.06 430.74 175.98 C 431.19 169.59 430.91 163.09 428.97 156.95 C 426.66 149.95 424.88 142.54 420.52 136.47 C 417.19 133.03 412.75 130.58 407.97 129.97 C 404.57 129.53 401.39 128.20 398.09 127.38 C 386.49 125.66 374.76 124.34 363.02 125.26 C 360.73 125.72 357.35 126.81 356.20 123.92 C 355.10 120.40 359.58 119.43 362.16 119.15 Z" />
<path fill="#000000" opacity="1.00" d=" M 438.13 208.14 C 444.72 208.15 450.74 205.09 457.28 204.67 C 460.56 204.09 464.66 204.14 466.55 207.39 C 470.16 213.30 471.97 220.13 473.64 226.79 C 474.93 231.34 473.28 236.63 469.43 239.43 C 462.71 244.42 455.02 247.81 447.82 252.01 C 454.67 253.25 462.67 252.70 467.86 258.23 C 471.91 263.45 475.60 270.38 473.09 277.07 C 471.59 283.18 464.92 285.38 459.91 287.90 C 450.36 291.15 440.08 289.93 430.17 290.15 C 427.75 289.95 424.36 290.46 422.96 287.96 C 421.76 286.43 423.31 284.94 424.02 283.65 C 433.35 284.02 442.73 284.41 452.05 283.53 C 457.28 282.96 462.31 280.51 466.34 277.19 C 469.62 272.41 466.58 266.56 463.52 262.52 C 460.23 259.10 455.25 259.19 450.88 258.67 C 446.28 258.09 441.74 257.02 437.08 257.01 C 434.52 256.96 433.37 253.05 435.56 251.66 C 437.96 250.38 440.52 249.36 442.82 247.87 C 450.10 243.38 458.09 240.10 465.05 235.09 C 467.09 233.76 468.42 231.39 467.79 228.92 C 466.54 222.46 464.43 216.13 461.39 210.29 C 453.38 210.45 446.04 214.49 438.02 214.10 C 435.67 212.69 435.24 209.21 438.13 208.14 Z" />
</g>
</svg>
